<svg width="1280" height="720" viewBox="0 0 1280 720" fill="none" xmlns="http://www.w3.org/2000/svg">
  <rect width="1280" height="720" rx="48" fill="#F5F7FA"/>
  <rect x="80" y="88" width="1120" height="544" rx="40" fill="#FFFFFF" stroke="#E4E7EC" stroke-width="2"/>
  <rect x="140" y="148" width="320" height="32" rx="16" fill="#E2EEF0"/>
  <rect x="140" y="208" width="420" height="180" rx="28" fill="#F2F6F7"/>
  <rect x="600" y="208" width="460" height="260" rx="32" fill="#EAF7F1"/>
  <circle cx="830" cy="320" r="96" fill="#3B7C74" opacity="0.18"/>
  <path d="M640 440C690 400 760 420 820 380C880 340 940 360 1000 320" stroke="#3B7C74" stroke-width="6" stroke-linecap="round" opacity="0.8"/>
  <rect x="140" y="416" width="420" height="44" rx="22" fill="#EAEFF2"/>
  <rect x="140" y="476" width="320" height="44" rx="22" fill="#EAEFF2"/>
  <rect x="140" y="536" width="260" height="44" rx="22" fill="#EAEFF2"/>
  <rect x="520" y="536" width="540" height="44" rx="22" fill="#3B7C74" opacity="0.4"/>
</svg>

